#Comment line ignore any data following # character 
#Hierarchical Translation and Rotation (.htr) file 
[Header]	
#Header keywords are followed by a single value 
FileType HTR		#Single word string
DataType HTRS		#Translation followed by rotation and scale data
FileVersion 1		#integer
NumSegments 64		#integer
NumFrames 3		#integer
DataFrameRate 30		#integer, data frame rate in this file
EulerRotationOrder ZYX
CalibrationUnits mm
RotationUnits Degrees
GlobalAxisofGravity Y
BoneLengthAxis Y
ScaleFactor 1.00
[SegmentNames&Hierarchy]
#CHILD	PARENT
Pinger_Root GLOBAL
Pelvis Pinger_Root
L_Hip Pelvis
R_Hip Pelvis
Rear_Leg01 Pelvis
Spine1 Pelvis
L_Leg01 L_Hip
L_Leg02 L_Leg01
L_Leg03 L_Leg02
L_Foot L_Leg03
L_Toe1_01 L_Foot
L_Toe2_01 L_Foot
L_Toe3_01 L_Foot
planeAlignerLeft L_Foot
L_Toe1_02 L_Toe1_01
L_Toe1_03 L_Toe1_02
L_Toe2_02 L_Toe2_01
L_Toe2_03 L_Toe2_02
L_Toe3_02 L_Toe3_01
L_Toe3_03 L_Toe3_02
planeLockWeightLeft planeAlignerLeft
R_Leg01 R_Hip
R_Leg02 R_Leg01
R_Leg03 R_Leg02
R_Foot R_Leg03
planeAlignerRight R_Foot
R_Toe1_01 R_Foot
R_Toe2_01 R_Foot
R_Toe3_01 R_Foot
planeLockWeightRight planeAlignerRight
R_Toe1_02 R_Toe1_01
R_Toe1_03 R_Toe1_02
R_Toe2_02 R_Toe2_01
R_Toe2_03 R_Toe2_02
R_Toe3_02 R_Toe3_01
R_Toe3_03 R_Toe3_02
Rear_Leg02 Rear_Leg01
Rear_Leg03 Rear_Leg02
Rear_Leg04 Rear_Leg03
Rear_Foot Rear_Leg04
planeAlignerCenter Rear_Foot
Rear_Toe1_01 Rear_Foot
Rear_Toe2_01 Rear_Foot
Rear_Toe3_01 Rear_Foot
planeLockWeightCenter planeAlignerCenter
Rear_Toe1_02 Rear_Toe1_01
Rear_Toe1_03 Rear_Toe1_02
Rear_Toe2_02 Rear_Toe2_01
Rear_Toe2_03 Rear_Toe2_02
Rear_Toe3_02 Rear_Toe3_01
Rear_Toe3_03 Rear_Toe3_02
Back_Bone Spine1
Head Spine1
Motor_Bone Back_Bone
Ping_Mechanism Back_Bone
BN_LookIK Head
bottomMouth Head
L_Mouth01 Head
L_mouthFront Head
mouthGun Head
R_Mouth01 Head
R_mouthFront Head
TopMouth Head
weapon_bone Head
[BasePosition]
#SegmentName Tx, Ty, Tz, Rx, Ry, Rz, BoneLength
Pinger_Root 0.000000 0.000000 0.000000 -90.000000 0.000000 0.000000 10.000000 
Pelvis 0.000000 0.000000 0.000000 0.000000 0.000000 0.000000 10.000000 
L_Hip 0.000000 0.000000 0.000000 0.000000 0.000000 0.000000 10.000000 
R_Hip 0.000000 0.000000 0.000000 0.000000 0.000000 0.000000 10.000000 
Rear_Leg01 0.000000 0.000000 0.000000 0.000000 0.000000 0.000000 10.000000 
Spine1 0.000000 0.000000 0.000000 0.000000 0.000000 0.000000 10.000000 
L_Leg01 0.000000 0.000000 0.000000 0.000000 0.000000 0.000000 10.000000 
L_Leg02 0.000000 0.000000 0.000000 0.000000 0.000000 0.000000 10.000000 
L_Leg03 0.000000 0.000000 0.000000 0.000000 0.000000 0.000000 10.000000 
L_Foot 0.000000 0.000000 0.000000 0.000000 0.000000 0.000000 10.000000 
L_Toe1_01 0.000000 0.000000 0.000000 0.000000 0.000000 0.000000 10.000000 
L_Toe2_01 0.000000 0.000000 0.000000 0.000000 0.000000 0.000000 10.000000 
L_Toe3_01 0.000000 0.000000 0.000000 0.000000 0.000000 0.000000 10.000000 
planeAlignerLeft 0.000000 0.000000 0.000000 0.000000 0.000000 0.000000 10.000000 
L_Toe1_02 0.000000 0.000000 0.000000 0.000000 0.000000 0.000000 10.000000 
L_Toe1_03 0.000000 0.000000 0.000000 0.000000 0.000000 0.000000 10.000000 
L_Toe2_02 0.000000 0.000000 0.000000 0.000000 0.000000 0.000000 10.000000 
L_Toe2_03 0.000000 0.000000 0.000000 0.000000 0.000000 0.000000 10.000000 
L_Toe3_02 0.000000 0.000000 0.000000 0.000000 0.000000 0.000000 10.000000 
L_Toe3_03 0.000000 0.000000 0.000000 0.000000 0.000000 0.000000 10.000000 
planeLockWeightLeft 0.000000 0.000000 0.000000 0.000000 0.000000 0.000000 10.000000 
R_Leg01 0.000000 0.000000 0.000000 0.000000 0.000000 0.000000 10.000000 
R_Leg02 0.000000 0.000000 0.000000 0.000000 0.000000 0.000000 10.000000 
R_Leg03 0.000000 0.000000 0.000000 0.000000 0.000000 0.000000 10.000000 
R_Foot 0.000000 0.000000 0.000000 0.000000 0.000000 0.000000 10.000000 
planeAlignerRight 0.000000 0.000000 0.000000 0.000000 0.000000 0.000000 10.000000 
R_Toe1_01 0.000000 0.000000 0.000000 0.000000 0.000000 0.000000 10.000000 
R_Toe2_01 0.000000 0.000000 0.000000 0.000000 0.000000 0.000000 10.000000 
R_Toe3_01 0.000000 0.000000 0.000000 0.000000 0.000000 0.000000 10.000000 
planeLockWeightRight 0.000000 0.000000 0.000000 0.000000 0.000000 0.000000 10.000000 
R_Toe1_02 0.000000 0.000000 0.000000 0.000000 0.000000 0.000000 10.000000 
R_Toe1_03 0.000000 0.000000 0.000000 0.000000 0.000000 0.000000 10.000000 
R_Toe2_02 0.000000 0.000000 0.000000 0.000000 0.000000 0.000000 10.000000 
R_Toe2_03 0.000000 0.000000 0.000000 0.000000 0.000000 0.000000 10.000000 
R_Toe3_02 0.000000 0.000000 0.000000 0.000000 0.000000 0.000000 10.000000 
R_Toe3_03 0.000000 0.000000 0.000000 0.000000 0.000000 0.000000 10.000000 
Rear_Leg02 0.000000 0.000000 0.000000 0.000000 0.000000 0.000000 10.000000 
Rear_Leg03 0.000000 0.000000 0.000000 0.000000 0.000000 0.000000 10.000000 
Rear_Leg04 0.000000 0.000000 0.000000 0.000000 0.000000 0.000000 10.000000 
Rear_Foot 0.000000 0.000000 0.000000 0.000000 0.000000 0.000000 10.000000 
planeAlignerCenter 0.000000 0.000000 0.000000 0.000000 0.000000 0.000000 10.000000 
Rear_Toe1_01 0.000000 0.000000 0.000000 0.000000 0.000000 0.000000 10.000000 
Rear_Toe2_01 0.000000 0.000000 0.000000 0.000000 0.000000 0.000000 10.000000 
Rear_Toe3_01 0.000000 0.000000 0.000000 0.000000 0.000000 0.000000 10.000000 
planeLockWeightCenter 0.000000 0.000000 0.000000 0.000000 0.000000 0.000000 10.000000 
Rear_Toe1_02 0.000000 0.000000 0.000000 0.000000 0.000000 0.000000 10.000000 
Rear_Toe1_03 0.000000 0.000000 0.000000 0.000000 0.000000 0.000000 10.000000 
Rear_Toe2_02 0.000000 0.000000 0.000000 0.000000 0.000000 0.000000 10.000000 
Rear_Toe2_03 0.000000 0.000000 0.000000 0.000000 0.000000 0.000000 10.000000 
Rear_Toe3_02 0.000000 0.000000 0.000000 0.000000 0.000000 0.000000 10.000000 
Rear_Toe3_03 0.000000 0.000000 0.000000 0.000000 0.000000 0.000000 10.000000 
Back_Bone 0.000000 0.000000 0.000000 0.000000 0.000000 0.000000 10.000000 
Head 0.000000 0.000000 0.000000 0.000000 0.000000 0.000000 10.000000 
Motor_Bone 0.000000 0.000000 0.000000 0.000000 0.000000 0.000000 10.000000 
Ping_Mechanism 0.000000 0.000000 0.000000 0.000000 0.000000 0.000000 10.000000 
BN_LookIK 0.000000 0.000000 0.000000 0.000000 0.000000 0.000000 10.000000 
bottomMouth 0.000000 0.000000 0.000000 0.000000 0.000000 0.000000 10.000000 
L_Mouth01 0.000000 0.000000 0.000000 0.000000 0.000000 0.000000 10.000000 
L_mouthFront 0.000000 0.000000 0.000000 0.000000 0.000000 0.000000 10.000000 
mouthGun 0.000000 0.000000 0.000000 0.000000 0.000000 0.000000 10.000000 
R_Mouth01 0.000000 0.000000 0.000000 0.000000 0.000000 0.000000 10.000000 
R_mouthFront 0.000000 0.000000 0.000000 0.000000 0.000000 0.000000 10.000000 
TopMouth 0.000000 0.000000 0.000000 0.000000 0.000000 0.000000 10.000000 
weapon_bone 0.000000 0.000000 0.000000 0.000000 0.000000 0.000000 10.000000 
#Beginning of Data. Separated by tabs
#Fr	Tx	Ty	Tz	Rx	Ry	Rz	SF
[Pinger_Root]
6 -400.874603 -0.000111 0.000000 -0.000075 -0.000000 -0.000020 400.874603
7 -489.445953 -0.000135 0.000000 -0.000075 -0.000000 -0.000020 489.445953
8 -580.000000 -0.000160 0.000000 -0.000075 -0.000000 -0.000020 580.000000
[Pelvis]
6 -664.763123 132.430328 5065.086426 84.598442 -82.835388 -48.462856 5110.239746
7 -622.007385 111.049095 5052.234375 78.483788 -79.262321 -42.330738 5091.590820
8 -579.251648 89.667854 5039.381836 74.136551 -76.213669 -37.950573 5073.356445
[L_Hip]
6 5.766392 125.831482 872.656799 -178.253311 -81.787712 87.381248 881.701050
7 5.766392 125.831482 872.656799 -178.253311 -81.787758 87.381340 881.701050
8 5.766392 125.831482 872.656799 -178.253311 -81.787758 87.381340 881.701050
[R_Hip]
6 5.765438 125.836372 -872.654907 -1.746713 81.787666 87.381149 881.699829
7 5.765438 125.836372 -872.654907 -1.746690 81.787712 87.381248 881.699829
8 5.765438 125.836372 -872.654907 -1.746690 81.787712 87.381248 881.699829
[Rear_Leg01]
6 -192.298416 -925.602966 -0.001907 179.495102 5.680529 -149.926346 945.367432
7 -192.298416 -925.602966 -0.001907 177.987518 3.139541 -152.410461 945.367432
8 -192.298416 -925.602966 -0.001907 -171.154053 -0.546651 -151.740097 945.367432
[Spine1]
6 290.604584 5.007505 0.000477 -22.406488 11.708893 33.662674 290.647736
7 290.604584 5.007505 0.000477 -23.233217 10.472207 36.877625 290.647736
8 290.604584 5.007505 0.000477 -24.198202 9.146787 39.432968 290.647736
[L_Leg01]
6 761.932007 -0.002384 -0.069261 67.253349 6.671537 -74.973106 761.932068
7 761.932007 -0.002384 -0.069261 67.923683 7.300751 -76.588470 761.932068
8 761.932007 -0.002384 -0.069261 68.290314 7.599022 -78.429878 761.932068
[L_Leg02]
6 1441.140503 -0.000954 -0.000715 -1.297143 0.806443 -93.350235 1441.140503
7 1441.140503 -0.000954 -0.000715 -1.250290 0.845823 -94.379730 1441.140503
8 1441.140503 -0.000954 -0.000715 -1.206274 0.877315 -95.060585 1441.140503
[L_Leg03]
6 1686.963989 -0.000715 -0.000954 0.094003 -0.011846 84.514656 1686.963989
7 1686.963989 -0.000715 -0.000954 0.104754 -0.009983 81.754173 1686.963989
8 1686.963989 -0.000715 -0.000954 0.113850 -0.008534 79.167839 1686.963989
[L_Foot]
6 3041.570068 -30.715107 11.297464 -17.080807 16.331657 86.145653 3041.746094
7 3041.570068 -30.715107 11.297464 -16.347366 16.458448 87.535805 3041.746094
8 3041.570068 -30.715107 11.297464 -15.610270 16.568140 88.928787 3041.746094
[L_Toe1_01]
6 -188.216690 -224.732346 -21.137953 89.561821 -2.852437 -164.520782 293.899567
7 -188.216690 -224.732346 -21.137953 89.515175 -2.656535 -164.113785 293.899567
8 -188.216690 -224.732346 -21.137953 89.469917 -2.460299 -163.706985 293.899567
[L_Toe2_01]
6 200.746536 -219.926590 148.838394 -77.573914 -14.011578 -44.622776 332.896027
7 200.746536 -219.926590 148.838394 -77.602486 -13.873698 -44.646610 332.896027
8 200.746536 -219.926590 148.838394 -77.631088 -13.735832 -44.670494 332.896027
[L_Toe3_01]
6 188.832520 -219.859131 -191.078659 -105.461563 15.240423 -45.767208 347.140900
7 188.832520 -219.859131 -191.078659 -105.599052 15.586229 -45.971077 347.140900
8 188.832520 -219.859131 -191.078659 -105.738060 15.931568 -46.176159 347.140900
[planeAlignerLeft]
6 -21.838072 -614.676208 17.426666 0.000000 -89.972023 -90.014915 615.310852
7 -27.844851 -616.379883 12.896514 0.000000 -90.000000 -90.017578 617.143250
8 -33.851624 -618.083496 8.366364 0.000000 -89.960434 -90.020218 619.066345
[L_Toe1_02]
6 413.761139 0.000477 0.000000 0.001409 -22.843231 0.001409 413.761139
7 413.761139 0.000477 0.000000 0.001407 -23.027521 0.001407 413.761139
8 413.761139 0.000477 0.000000 0.001406 -23.211811 0.001406 413.761139
[L_Toe1_03]
6 464.317322 0.000358 -0.000089 0.012449 79.179924 0.012449 464.317322
7 464.317322 0.000358 -0.000089 0.011458 78.241882 0.011458 464.317322
8 464.317322 0.000358 -0.000089 0.010516 77.183556 0.010516 464.317322
[L_Toe2_02]
6 342.235809 -0.000477 0.000238 0.001180 -77.942879 0.001180 342.235809
7 342.235809 -0.000477 0.000238 0.001180 -78.105347 0.001180 342.235809
8 342.235809 -0.000477 0.000238 0.001180 -78.267715 0.001180 342.235809
[L_Toe2_03]
6 420.210846 -0.000715 0.000000 -179.996979 76.212929 -179.993454 420.210846
7 420.210846 -0.000715 0.000000 -179.997269 75.269836 -179.993744 420.210846
8 420.210846 -0.000715 0.000000 -179.997543 74.326721 -179.994019 420.210846
[L_Toe3_02]
6 329.270111 0.000954 0.000000 0.001177 -81.867447 0.001177 329.270111
7 329.270111 0.000954 0.000000 0.001177 -81.907425 0.001177 329.270111
8 329.270111 0.000954 0.000000 0.001177 -81.947311 0.001177 329.270111
[L_Toe3_03]
6 439.137451 -0.001907 0.000954 -179.997971 72.605606 -179.994431 439.137451
7 439.137451 -0.001907 0.000954 -179.998047 72.234047 -179.994522 439.137451
8 439.137451 -0.001907 0.000954 -179.998123 71.862450 -179.994583 439.137451
[planeLockWeightLeft]
6 1000.000366 -0.000305 -0.000113 -0.011826 -0.004376 0.005620 1000.000366
7 1000.000366 -0.000305 -0.000109 -0.011826 -0.004376 0.005620 1000.000366
8 1000.000244 -0.000305 -0.000105 -0.011826 -0.004376 0.005620 1000.000244
[R_Leg01]
6 761.455627 -0.001907 -0.000358 82.708992 -19.187677 72.271492 761.455688
7 761.455627 -0.001907 -0.000358 79.414581 -15.833531 71.662605 761.455688
8 761.455627 -0.001907 -0.000358 76.020622 -12.941706 70.707718 761.455688
[R_Leg02]
6 1441.140625 0.000000 -0.000238 0.183794 -0.026124 -97.014709 1441.140625
7 1441.140625 0.000000 -0.000238 0.185358 -0.028051 -98.493401 1441.140625
8 1441.140625 0.000000 -0.000238 0.186971 -0.029938 -99.972565 1441.140625
[R_Leg03]
6 1686.963989 0.000954 0.001431 -0.067351 0.015123 91.930504 1686.963989
7 1686.963989 0.000954 0.001431 -0.060225 0.012522 93.850082 1686.963989
8 1686.963989 0.000954 0.001431 -0.053189 0.009683 95.769646 1686.963989
[R_Foot]
6 3041.560059 -30.531288 -11.204481 24.490789 -26.597538 58.347473 3041.734131
7 3041.560059 -30.531288 -11.204481 25.797850 -28.103151 57.346748 3041.734131
8 3041.560059 -30.531288 -11.204481 27.394657 -29.942785 56.274204 3041.734131
[planeAlignerRight]
6 -102.715065 -632.773376 52.325745 0.000000 -89.951546 -90.014481 643.187805
7 -132.389999 -664.282104 66.234131 0.000000 -89.972023 -90.016403 680.576782
8 -157.647110 -693.425598 76.684875 0.000000 -89.960434 -90.018311 715.242798
[R_Toe1_01]
6 -188.383347 -224.864899 21.052242 90.908661 -0.771396 -159.182938 294.101532
7 -188.383347 -224.864899 21.052242 90.889099 -1.452135 -154.882416 294.101532
8 -188.383347 -224.864899 21.052242 90.805824 -1.931423 -151.008484 294.101532
[R_Toe2_01]
6 200.637817 -220.002121 -148.787384 -101.836601 11.268566 -44.292755 332.857574
7 200.637817 -220.002121 -148.787384 -102.368790 10.471728 -46.858379 332.857574
8 200.637817 -220.002121 -148.787384 -102.862946 9.652347 -49.409973 332.857574
[R_Toe3_01]
6 188.606735 -220.092957 191.126343 -72.467308 -20.802101 -48.677906 347.192566
7 188.606735 -220.092957 191.126343 -71.381271 -21.326302 -51.786816 347.192566
8 188.606735 -220.092957 191.126343 -70.262482 -21.794575 -54.916519 347.192566
[planeLockWeightRight]
6 999.999756 0.000362 -0.000178 -0.011823 -0.004379 -0.000027 999.999756
7 999.999817 0.000343 -0.000122 -0.011823 -0.004379 -0.000027 999.999817
8 999.999939 0.000324 -0.000066 -0.011823 -0.004379 -0.000027 999.999939
[R_Toe1_02]
6 413.762085 0.000477 -0.000119 0.001388 -25.434610 0.001388 413.762085
7 413.762085 0.000477 -0.000119 0.001384 -26.007854 0.001384 413.762085
8 413.762085 0.000477 -0.000119 0.001390 -25.236916 0.001390 413.762085
[R_Toe1_03]
6 464.317810 0.000000 0.001088 0.005162 63.715065 0.005162 464.317810
7 464.317810 0.000000 0.001088 0.003763 53.658188 0.003763 464.317810
8 464.317810 0.000000 0.001088 0.002906 42.365475 0.002906 464.317810
[R_Toe2_02]
6 342.234741 -0.000954 0.000238 -0.002333 -79.686279 -0.002333 342.234741
7 342.234741 -0.000954 0.000238 -0.002332 -79.956543 -0.002332 342.234741
8 342.234741 -0.000954 0.000238 -0.002332 -79.973732 -0.002332 342.234741
[R_Toe2_03]
6 420.210846 0.000715 -0.000268 -179.995636 64.169792 -179.999222 420.210846
7 420.210846 0.000715 -0.000268 -179.995728 63.139500 -179.999329 420.210846
8 420.210846 0.000715 -0.000268 -179.995743 62.983185 -179.999344 420.210846
[R_Toe3_02]
6 329.270355 -0.000477 -0.000954 0.001176 -82.491020 0.001176 329.270355
7 329.270355 -0.000477 -0.000954 0.001176 -82.576378 0.001176 329.270355
8 329.270355 -0.000477 -0.000954 0.001176 -82.568741 0.001176 329.270355
[R_Toe3_03]
6 439.137939 0.000238 0.001431 -179.998734 68.225845 -179.995178 439.137939
7 439.137939 0.000238 0.001431 -179.998657 68.772102 -179.995102 439.137939
8 439.137939 0.000238 0.001431 -179.998566 69.318382 -179.995026 439.137939
[Rear_Leg02]
6 1162.777710 -0.029802 0.005960 26.428335 -4.385474 -130.707672 1162.777710
7 1162.777710 -0.029802 0.005960 22.675547 -10.923417 -120.089645 1162.777710
8 1162.777710 -0.029802 0.005960 20.555449 -10.920721 -122.419464 1162.777710
[Rear_Leg03]
6 607.192505 -0.013351 -0.073195 0.009858 -0.006243 81.049599 607.192505
7 607.192505 -0.013351 -0.073195 0.009964 -0.006073 79.079514 607.192505
8 607.192505 -0.013351 -0.073195 0.009983 -0.006042 78.720833 607.192505
[Rear_Leg04]
6 995.874512 -0.020504 -0.011921 -0.042665 -0.013770 110.044846 995.874573
7 995.874512 -0.020504 -0.011921 -0.044208 -0.014503 97.833115 995.874573
8 995.874512 -0.020504 -0.011921 -0.043999 -0.015125 96.215569 995.874573
[Rear_Foot]
6 3096.176270 -0.067472 -0.041425 -74.149063 62.124527 82.220833 3096.176270
7 3096.176270 -0.067472 -0.041425 -77.538727 64.711136 69.028877 3096.176270
8 3096.176270 -0.067472 -0.041425 -79.008339 67.242401 61.558514 3096.176270
[planeAlignerCenter]
6 3.389231 297.774628 -757.760742 0.001660 -0.001660 179.998337 814.176025
7 2.287019 313.563873 -758.418152 0.001660 -0.001660 179.998352 820.686035
8 -91.052475 -62.541710 -930.144958 0.001492 -0.001812 -168.935806 936.681213
[Rear_Toe1_01]
6 0.653352 83.966492 -371.173737 0.084948 39.787598 90.042854 380.553192
7 0.653352 83.966492 -371.173737 0.093403 39.891743 90.045464 380.553192
8 0.653352 83.966492 -371.173737 4.222364 34.974072 108.419403 380.553192
[Rear_Toe2_01]
6 178.200760 -294.826019 -362.060547 32.033958 78.206673 -37.425560 499.765686
7 178.200760 -294.826019 -362.060547 25.525410 76.081955 -43.650349 499.765686
8 178.200760 -294.826019 -362.060547 -2.705288 57.905430 -64.977943 499.765686
[Rear_Toe3_01]
6 -153.359680 -308.780914 -362.060852 -34.853607 77.661736 -147.749969 499.952881
7 -153.359680 -308.780914 -362.060852 -28.069836 75.639809 -141.282501 499.952881
8 -153.359680 -308.780914 -362.060852 -0.787398 52.971519 -100.488647 499.952881
[planeLockWeightCenter]
6 648.000305 0.000305 -0.000076 -0.011814 -0.004373 -0.000015 648.000305
7 896.000061 0.000763 0.000038 -0.011814 -0.004373 -0.000015 896.000061
8 1000.000366 0.000534 -0.000105 -0.011814 -0.004373 -0.000015 1000.000366
[Rear_Toe1_02]
6 379.707825 0.194073 0.000477 -0.002640 -33.251514 -0.002640 379.707855
7 379.707825 0.194073 0.000477 -0.002638 -33.449158 -0.002638 379.707855
8 379.707825 0.194073 0.000477 -0.000652 -33.513725 -0.000652 379.707855
[Rear_Toe1_03]
6 500.129700 0.165701 0.000119 0.016493 81.839134 0.016493 500.129761
7 500.129700 0.165701 0.000119 0.014375 80.633759 0.014375 500.129761
8 500.129700 0.165701 0.000119 0.007292 71.477234 0.007292 500.129761
[Rear_Toe2_02]
6 340.494507 0.000238 -0.000954 179.998825 -89.371307 179.998825 340.494507
7 340.494507 0.000238 -0.000954 0.001174 -89.246712 0.001174 340.494507
8 340.494507 0.000238 -0.000954 0.001199 -66.261894 0.001199 340.494507
[Rear_Toe2_03]
6 433.103577 0.000000 0.000238 -179.995636 64.193138 -179.999222 433.103546
7 433.103577 0.000000 0.000238 -179.995056 69.052261 -179.998611 433.103546
8 433.103577 0.000000 0.000238 0.005321 64.514526 0.005321 433.103546
[Rear_Toe3_02]
6 340.494141 -0.000358 -0.000477 0.000000 -89.517456 0.004646 340.494171
7 340.494141 -0.000358 -0.000477 0.001174 -89.065811 0.001174 340.494171
8 340.494141 -0.000358 -0.000477 -0.002449 -53.045647 -0.002449 340.494171
[Rear_Toe3_03]
6 433.103577 0.001431 -0.000238 -179.999161 64.748627 -179.995575 433.103546
7 433.103577 0.001431 -0.000238 -179.998520 69.677750 -179.994965 433.103546
8 433.103577 0.001431 -0.000238 0.000279 47.763248 -0.003469 433.103546
[Back_Bone]
6 1312.175781 -701.934692 0.000954 -3.274529 -1.631327 -83.908981 1488.125488
7 1312.175781 -701.934692 0.000954 -3.206084 -2.430949 -83.410004 1488.125488
8 1312.175781 -701.934692 0.000954 -2.959318 -2.899582 -82.784332 1488.125488
[Head]
6 1406.159424 809.709290 0.001431 -9.830698 7.154774 0.299771 1622.625488
7 1406.159424 809.709290 0.001431 -9.774630 6.937633 -0.163588 1622.625488
8 1406.159424 809.709290 0.001431 -9.716817 6.720955 -0.626940 1622.625488
[Motor_Bone]
6 1158.364380 -417.834747 0.000477 1.114805 -1.132542 -107.122055 1231.419434
7 1158.364380 -417.834747 0.000477 -1.034497 -1.094875 -107.077385 1231.419434
8 1158.364380 -417.834747 0.000477 -2.188165 -1.022762 -107.007042 1231.419434
[Ping_Mechanism]
6 1191.398315 -415.462006 20.858536 0.000103 -0.000053 82.120995 1261.932495
7 1183.884888 -406.917084 35.910805 0.000103 -0.000053 82.120995 1252.379517
8 1179.800415 -399.565430 49.941788 0.000103 -0.000053 82.120995 1246.625732
[BN_LookIK]
6 193.241119 1380.371704 -0.002861 0.000000 89.965736 -31.038179 1393.832153
7 193.241119 1380.371704 -0.002861 0.000000 89.965736 -31.038179 1393.832153
8 193.241119 1380.371704 -0.002861 0.000000 89.965736 -31.038179 1393.832153
[bottomMouth]
6 -435.092926 615.759399 -0.000954 -0.000022 0.000016 73.527184 753.966492
7 -435.092926 615.759399 -0.000954 -0.000022 0.000016 73.527184 753.966492
8 -435.092926 615.759399 -0.000954 -0.000022 0.000016 73.527184 753.966492
[L_Mouth01]
6 554.440979 7.658243 838.222046 150.204178 23.759130 109.605339 1005.027161
7 554.440979 7.658243 838.222046 150.204178 23.759130 109.605339 1005.027161
8 554.440979 7.658243 838.222046 150.204178 23.759130 109.605339 1005.027161
[L_mouthFront]
6 551.629089 934.514771 339.150421 0.000081 2.804060 79.119301 1136.941284
7 551.629089 934.514771 339.150421 0.000081 2.804060 79.119301 1136.941284
8 551.629089 934.514771 339.150421 0.000081 2.804060 79.119301 1136.941284
[mouthGun]
6 55.332661 1627.420898 0.000000 0.000023 0.000009 -11.038128 1628.361328
7 55.332661 1627.420898 0.000000 0.000023 0.000009 -11.038128 1628.361328
8 55.332661 1627.420898 0.000000 0.000023 0.000009 -11.038128 1628.361328
[R_Mouth01]
6 554.442383 7.659197 -838.223938 29.795891 -23.759109 109.605331 1005.029541
7 554.442383 7.659197 -838.223938 29.795891 -23.759109 109.605331 1005.029541
8 554.442383 7.659197 -838.223938 29.795891 -23.759109 109.605331 1005.029541
[R_mouthFront]
6 551.629089 934.514282 -339.151367 0.000029 -2.803930 79.119133 1136.941162
7 551.629089 934.514282 -339.151367 0.000029 -2.803930 79.119133 1136.941162
8 551.629089 934.514282 -339.151367 0.000029 -2.803930 79.119133 1136.941162
[TopMouth]
6 461.269867 -56.106091 -0.008583 -0.000059 -0.000268 92.025169 464.669525
7 461.269867 -56.106091 -0.008583 -0.000059 -0.000268 92.025169 464.669525
8 461.269867 -56.106091 -0.008583 -0.000059 -0.000268 92.025169 464.669525
[weapon_bone]
6 -987.239868 1448.372803 0.001431 0.000000 89.965736 -31.038221 1752.833740
7 -987.239868 1448.372803 0.001431 0.000000 89.965736 -31.038221 1752.833740
8 -987.239868 1448.372803 0.001431 0.000000 89.965736 -31.038221 1752.833740
